Coordinates
version=1
nRows=6
nColumns=46
inDegrees=yes

Units are S.I. units (second, meters, Newtons, ...)
Angles are in degrees.

endheader
time	pelvis_tilt	pelvis_list	pelvis_rotation	pelvis_tx	pelvis_ty	pelvis_tz	bb_angle	bb_tx	bb_ty	bb_tz	hip_flexion_r	hip_adduction_r	hip_rotation_r	knee_angle_r	knee_angle_r_beta	ankle_angle_r	subtalar_angle_r	mtp_angle_r	crank_angle_r	hip_flexion_l	hip_adduction_l	hip_rotation_l	knee_angle_l	knee_angle_l_beta	ankle_angle_l	subtalar_angle_l	mtp_angle_l	crank_angle_l	lumbar_extension	lumbar_bending	lumbar_rotation	arm_flex_r	arm_add_r	arm_rot_r	elbow_flex_r	pro_sup_r	wrist_flex_r	wrist_dev_r	arm_flex_l	arm_add_l	arm_rot_l	elbow_flex_l	pro_sup_l	wrist_flex_l	wrist_dev_l
      7.50000000	    -22.77128732	      6.12285406	     11.27456580	      0.35981657	      1.11225970	     -0.27168687	      0.00000000	      0.50000000	      0.00000000	      0.25000000	     41.58985725	    -14.63820184	     -2.56480614	     57.01990129	      0.99518502	    -29.82863233	     -4.54925846	      0.00000000	      0.00000000	     72.98046666	     -1.82863454	     -2.70806207	     81.09265273	      1.41533379	      8.02228756	      2.68194632	      0.00000000	      0.00000000	    -66.72297366	     -8.50711527	     -4.45238698	     62.48100207	    -29.00364574	     28.53779424	     64.78843525	     45.54055235	      0.00000000	      0.00000000	     76.36006016	     -5.09417052	     30.52961793	     63.48378344	     44.59871388	      0.00000000	      0.00000000
      7.50500000	    -22.77909827	      5.53368452	     11.15330363	      0.35960815	      1.11224390	     -0.27153059	      0.00000000	      0.50000000	      0.00000000	      0.25000000	     42.79029060	    -13.84695082	     -1.76366303	     59.59264821	      1.04008792	    -29.34153421	     -4.12671689	      0.00000000	      0.00000000	     71.75828987	     -2.25720065	     -2.97463638	     78.41825561	      1.36865675	      7.65987526	      2.25022804	      0.00000000	      0.00000000	    -66.50291892	     -8.40524068	     -4.59643090	     63.17368717	    -27.83047624	     28.99027661	     62.99839485	     45.34313506	      0.00000000	      0.00000000	     75.48997326	     -5.19253208	     28.15367780	     64.89729933	     44.57983719	      0.00000000	      0.00000000
      7.51000000	    -22.62963729	      4.75546879	     11.03865936	      0.35957038	      1.11208333	     -0.27138824	      0.00000000	      0.50000000	      0.00000000	      0.25000000	     43.81203408	    -12.89161811	     -1.31664084	     62.14472277	      1.08463003	    -28.92981785	     -4.22380371	      0.00000000	      0.00000000	     70.47750069	     -2.85440997	     -3.09477459	     75.87302783	      1.32423415	      7.17977261	      2.13558312	      0.00000000	      0.00000000	    -66.45652007	     -8.18100029	     -4.04382533	     63.36402871	    -27.78373860	     29.09045597	     62.82947458	     45.33188586	      0.00000000	      0.00000000	     75.42739375	     -5.26935472	     28.11043738	     65.08963770	     44.60816048	      0.00000000	      0.00000000
      7.51500000	    -22.48583776	      4.00101609	     10.91351686	      0.35954466	      1.11178294	     -0.27126727	      0.00000000	      0.50000000	      0.00000000	      0.25000000	     44.83693008	    -11.96109889	     -0.93263407	     64.63013248	      1.12800861	    -28.46536640	     -4.16163588	      0.00000000	      0.00000000	     69.17438873	     -3.45496943	     -3.22077398	     73.29026436	      1.27915642	      6.46668772	      2.09938504	      0.00000000	      0.00000000	    -66.38489825	     -7.96401882	     -3.54489935	     63.56347940	    -27.74343708	     29.25900492	     62.63581003	     45.32314825	      0.00000000	      0.00000000	     75.33965882	     -5.41262708	     28.03112765	     65.33774816	     44.64229282	      0.00000000	      0.00000000
      7.52000000	    -22.25770723	      3.14688744	     10.91664262	      0.35914914	      1.11121467	     -0.27181118	      0.00000000	      0.50000000	      0.00000000	      0.25000000	     45.80071196	    -11.13076783	     -0.80159544	     67.02161276	      1.16974781	    -28.46065793	     -3.95532554	      0.00000000	      0.00000000	     67.90716265	     -3.89806789	     -2.99823761	     70.81509163	      1.23595651	      5.89643481	      2.45174452	      0.00000000	      0.00000000	    -66.30726464	     -7.47386254	     -2.91526637	     63.62220653	    -27.64128956	     29.37685769	     62.55225964	     45.32362312	      0.00000000	      0.00000000	     75.25475297	     -5.58639502	     27.96081174	     65.45948634	     44.65674394	      0.00000000	      0.00000000
      7.52500000	    -22.28255763	      2.62359685	     10.86217109	      0.35895352	      1.11007274	     -0.27186805	      0.00000000	      0.50000000	      0.00000000	      0.25000000	     47.13995783	    -10.51205569	     -0.33101263	     69.67191525	      1.21600432	    -27.61962117	     -3.63261843	      0.00000000	      0.00000000	     66.77585637	     -4.31657165	     -3.12317661	     68.29853107	      1.19203424	      4.77415576	      3.23264021	      0.00000000	      0.00000000	    -66.09229515	     -7.27705423	     -2.69784389	     63.93078199	    -27.67051665	     29.66194672	     62.31602190	     45.31954994	      0.00000000	      0.00000000	     75.02778529	     -5.85250827	     27.83389241	     65.88748786	     44.71714769	      0.00000000	      0.00000000
